<?xml version="1.0" standalone="no"?>
<!DOCTYPE svg PUBLIC "-//W3C//DTD SVG 20010904//EN"
 "http://www.w3.org/TR/2001/REC-SVG-20010904/DTD/svg10.dtd">
<svg version="1.0" xmlns="http://www.w3.org/2000/svg"
 width="837.000000pt" height="558.000000pt" viewBox="0 0 837.000000 558.000000"
 preserveAspectRatio="xMidYMid meet">

<g transform="translate(0.000000,558.000000) scale(0.100000,-0.100000)"
fill="#000000" stroke="none">
<path d="M0 5304 c0 -248 2 -279 18 -302 10 -15 23 -38 29 -52 5 -14 31 -70
56 -125 46 -99 73 -210 55 -221 -17 -10 -25 9 -37 80 -7 38 -27 101 -46 140
-18 39 -41 89 -52 111 l-18 40 -3 -158 c-1 -87 -1 -226 0 -308 l3 -150 35 26
c34 25 80 96 80 122 0 17 15 16 29 -1 28 -34 -57 -161 -125 -186 l-24 -10 0
-830 0 -831 47 -21 c27 -11 54 -21 60 -21 7 0 11 -2 9 -4 -7 -7 99 -101 119
-106 17 -4 18 -5 2 -6 -15 -1 -17 -6 -10 -23 13 -36 8 -110 -10 -144 -20 -39
-112 -128 -172 -167 l-45 -29 0 -914 0 -914 122 105 c153 131 277 199 429 235
91 22 208 -13 289 -87 38 -34 40 -34 40 -12 0 55 56 163 104 199 77 59 100 70
147 70 54 0 81 -10 158 -58 65 -41 293 -210 303 -226 4 -6 8 -7 8 -2 0 5 -23
43 -50 83 -28 41 -46 72 -40 68 6 -3 25 -30 43 -58 50 -77 58 -82 100 -57 19
11 57 23 85 27 74 8 105 -14 150 -107 19 -41 37 -69 40 -62 3 9 8 10 16 3 17
-14 193 -16 210 -2 8 6 19 25 26 42 7 16 15 28 17 25 2 -2 -3 -18 -11 -35 -9
-16 -16 -34 -16 -38 0 -4 87 -7 192 -5 150 3 196 6 209 18 8 8 18 12 21 9 7
-8 91 24 100 38 5 8 8 8 8 1 0 -16 -23 -34 -57 -44 l-28 -8 30 -1 c36 -1 198
18 204 24 5 6 -25 52 -58 90 l-26 30 33 -30 c18 -16 42 -44 53 -62 18 -28 22
-30 52 -23 17 5 65 11 106 15 40 3 85 11 100 16 14 6 22 7 18 3 -4 -4 25 -17
65 -29 85 -24 147 -64 212 -136 60 -67 120 -187 122 -248 1 -25 3 -52 3 -58 1
-10 352 -13 1722 -13 946 0 1718 4 1715 8 -7 12 37 92 102 187 95 139 139 175
210 175 30 0 45 -7 70 -33 28 -29 32 -40 32 -86 0 -46 2 -52 18 -47 12 5 11 1
-5 -11 -22 -19 -66 -129 -57 -144 3 -5 1 -9 -5 -9 -6 0 -15 -9 -21 -20 -11
-20 -8 -20 525 -20 l535 0 0 1939 c0 1705 -2 1940 -15 1951 -8 7 -32 19 -52
27 l-38 14 34 -6 c19 -3 43 -13 53 -22 17 -16 18 13 18 830 l0 847 -750 0
-749 0 -35 -72 c-19 -40 -53 -126 -74 -190 -54 -161 -126 -276 -232 -372 -47
-41 -66 -67 -37 -50 9 6 9 4 1 -7 -6 -8 -14 -41 -18 -74 -15 -139 -56 -243
-134 -340 -57 -71 -251 -209 -325 -230 -83 -24 -126 -14 -176 40 -59 64 -74
121 -79 306 l-4 156 -62 30 c-100 50 -179 122 -216 197 -31 62 -32 70 -28 153
7 136 66 252 197 386 l65 67 -1575 0 -1575 0 -34 -70 c-19 -39 -44 -80 -57
-92 l-22 -21 57 -40 c54 -38 71 -54 72 -68 0 -4 -15 8 -34 26 -19 17 -50 40
-70 49 l-37 17 -33 -29 c-19 -16 -67 -42 -107 -57 -58 -23 -69 -30 -54 -36 14
-5 6 -8 -26 -8 -26 -1 -66 -8 -90 -17 -25 -9 -94 -19 -160 -23 -113 -6 -116
-7 -160 -42 -62 -51 -83 -59 -30 -13 44 38 44 39 20 45 -13 4 -40 7 -60 8 -20
1 -63 14 -95 31 -32 16 -60 27 -62 26 -10 -11 61 -127 85 -140 16 -8 23 -15
17 -16 -37 -1 -117 120 -112 168 1 9 -9 40 -22 67 -28 59 -31 140 -6 198 l16
37 -780 0 -780 0 0 -276z m4310 212 c0 -2 -7 -7 -16 -10 -8 -3 -12 -2 -9 4 6
10 25 14 25 6z m125 -16 c52 -19 45 -27 -9 -10 -99 31 -93 28 -66 28 14 0 48
-8 75 -18z m-167 -44 c-1 -60 27 -106 82 -133 24 -13 39 -23 32 -23 -24 0 -91
40 -103 61 -20 38 -28 80 -22 110 8 42 12 36 11 -15z m379 27 c49 -23 93 -86
92 -132 l-1 -36 -7 35 c-16 78 -67 128 -146 141 -39 6 -39 7 -7 8 19 0 50 -7
69 -16z m-3447 -157 c0 -2 -12 -11 -27 -20 l-28 -17 24 20 c23 21 31 25 31 17z
m7156 -178 l1 -173 -20 45 c-30 65 -33 209 -6 262 11 21 21 38 22 38 1 0 3
-78 3 -172z m-3803 145 c-13 -2 -33 -2 -45 0 -13 2 -3 4 22 4 25 0 35 -2 23
-4z m140 -10 c-7 -2 -19 -2 -25 0 -7 3 -2 5 12 5 14 0 19 -2 13 -5z m-2113
-34 c0 -14 -64 -39 -97 -38 -20 1 -16 4 16 10 25 5 52 15 60 24 18 18 21 18
21 4z m-283 -5 c-3 -3 -12 -4 -19 -1 -8 3 -5 6 6 6 11 1 17 -2 13 -5z m152
-20 c8 -7 -84 -2 -109 6 -15 5 1 6 40 3 36 -3 67 -7 69 -9z m-1119 2 c0 -2 -8
-10 -17 -17 -16 -13 -17 -12 -4 4 13 16 21 21 21 13z m2643 -27 c40 -20 107
-93 107 -115 0 -12 -9 -32 -19 -46 -28 -35 -44 -105 -37 -163 3 -33 2 -43 -4
-30 -19 44 -11 121 20 180 17 31 30 61 30 65 0 5 -21 29 -46 54 -53 53 -92 61
-118 24 -9 -12 -16 -17 -16 -11 0 14 39 53 53 53 4 0 18 -5 30 -11z m-2772
-49 c-13 -11 -28 -20 -35 -20 -6 0 3 9 19 20 38 25 47 25 16 0z m3616 14 c-3
-3 -12 -4 -19 -1 -8 3 -5 6 6 6 11 1 17 -2 13 -5z m-318 -48 c-2 -2 -13 8 -23
22 l-19 27 24 -22 c12 -12 21 -24 18 -27z m261 30 c0 -2 -8 -10 -17 -17 -16
-13 -17 -12 -4 4 13 16 21 21 21 13z m-3835 -34 c-3 -3 -11 0 -18 7 -9 10 -8
11 6 5 10 -3 15 -9 12 -12z m2994 -132 c0 -25 -6 -65 -14 -90 l-15 -45 7 40
c4 22 7 83 6 135 -1 77 1 86 7 50 5 -25 9 -65 9 -90z m2685 4 c-16 -20 -45
-48 -64 -62 -24 -18 -17 -8 23 33 31 33 57 64 57 69 0 5 3 6 7 3 3 -4 -7 -23
-23 -43z m-1829 16 c10 -11 16 -20 13 -20 -3 0 -13 9 -23 20 -10 11 -16 20
-13 20 3 0 13 -9 23 -20z m-4069 -24 c47 -47 45 -82 -11 -191 -55 -105 -99
-171 -125 -185 -29 -16 -76 -12 -91 8 -11 14 -11 15 1 5 8 -7 28 -13 46 -13
44 0 90 55 154 183 59 117 62 147 19 189 -28 29 -34 30 -83 25 -108 -11 -148
-51 -148 -149 l0 -63 -10 44 c-23 102 49 178 171 180 36 1 48 -4 77 -33z
m3762 6 c-15 -21 -83 -82 -91 -82 -5 0 95 99 101 100 2 0 -3 -8 -10 -18z
m3740 -2 c47 -21 66 -53 75 -130 5 -39 4 -37 -9 15 -18 71 -27 83 -79 106 -63
29 -102 25 -125 -13 -52 -86 -27 -168 87 -285 61 -64 75 -73 106 -73 65 0 87
68 47 145 -28 56 -24 69 5 15 34 -63 33 -114 -4 -150 -25 -25 -33 -28 -58 -21
-52 15 -69 28 -129 103 -93 115 -106 150 -84 229 22 78 80 99 168 59z m-3368
-20 c8 -5 11 -10 5 -10 -5 0 -17 5 -25 10 -8 5 -10 10 -5 10 6 0 17 -5 25 -10z
m265 -50 c-3 -5 -12 -10 -18 -10 -7 0 -6 4 3 10 19 12 23 12 15 0z m-4093 -27
c8 -10 18 -34 22 -53 3 -19 20 -63 37 -98 17 -35 29 -65 26 -68 -9 -9 -69 126
-74 168 -4 28 -12 42 -24 45 -11 3 -19 9 -19 14 0 15 16 10 32 -8z m740 -1
c-6 -5 -19 -17 -28 -28 -8 -10 -12 -12 -8 -4 12 26 26 40 38 40 7 0 7 -3 -2
-8z m-824 -34 c-23 -36 -48 -118 -48 -159 0 -51 14 -84 61 -147 45 -59 91 -92
128 -92 13 0 22 -3 18 -6 -12 -13 -73 7 -103 34 -53 47 -101 119 -113 169 -10
42 -9 57 8 113 19 61 45 110 58 110 3 0 -1 -10 -9 -22z m1858 -6 c48 -24 75
-52 51 -52 -8 0 -39 11 -69 25 -123 57 -285 14 -437 -117 -36 -32 -94 -82
-128 -110 -34 -29 -60 -54 -58 -56 1 -2 23 2 48 9 99 24 172 -47 138 -135 -5
-13 -7 -1 -7 32 1 41 -4 56 -22 74 -48 48 -184 10 -226 -63 -18 -33 -19 -41
-8 -90 9 -38 10 -74 3 -124 l-9 -70 0 75 c1 41 -2 100 -7 131 -5 39 -4 63 5
80 10 19 4 17 -26 -12 -22 -21 -64 -52 -94 -70 -95 -58 -206 -195 -185 -229 3
-6 1 -10 -6 -10 -19 0 -6 -106 17 -131 26 -29 93 -62 110 -55 9 4 12 2 8 -5
-5 -8 21 -10 92 -7 86 3 106 8 153 33 99 54 180 184 204 328 18 102 51 165
102 197 50 31 53 19 7 -27 -53 -53 -72 -93 -84 -177 -16 -125 -53 -198 -147
-295 -26 -27 -41 -47 -32 -44 11 4 9 0 -4 -10 -23 -19 -39 -22 -29 -6 3 6 -9
3 -27 -7 -50 -26 -206 -32 -265 -9 -91 35 -136 93 -136 179 -1 100 89 234 193
286 36 19 109 77 191 151 239 219 332 285 453 326 57 19 181 11 231 -15z
m1504 15 c0 -2 -10 -12 -22 -23 l-23 -19 19 23 c18 21 26 27 26 19z m-324 -87
c8 0 26 11 39 25 14 13 25 20 25 15 0 -18 -40 -50 -60 -50 -23 0 -70 42 -70
62 0 7 12 -2 26 -19 14 -18 32 -33 40 -33z m-211 -20 c3 -6 -1 -7 -9 -4 -18 7
-21 14 -7 14 6 0 13 -4 16 -10z m-855 -77 c0 -24 5 -43 10 -43 6 0 10 -4 10
-10 0 -5 -6 -10 -13 -10 -7 0 -21 -13 -30 -30 -20 -33 -15 -52 32 -106 14 -16
6 -10 -19 16 l-45 45 -45 -22 c-28 -15 -62 -23 -93 -23 l-49 0 17 -27 18 -28
-30 28 c-22 21 -41 28 -76 29 -26 1 -47 5 -47 8 1 22 24 27 120 26 93 -1 109
2 142 22 59 37 82 82 75 150 -5 51 -4 55 9 38 8 -11 14 -39 14 -63z m-2433 30
c-3 -10 -5 -4 -5 12 0 17 2 24 5 18 2 -7 2 -21 0 -30z m3355 -18 c11 -21 8
-18 -32 30 -24 29 -24 29 -2 10 13 -11 28 -29 34 -40z m-685 -31 c-3 -3 -12
-4 -19 -1 -8 3 -5 6 6 6 11 1 17 -2 13 -5z m-119 -31 c-10 -2 -28 -2 -40 0
-13 2 -5 4 17 4 22 1 32 -1 23 -4z m4473 -10 c13 -16 12 -17 -3 -4 -10 7 -18
15 -18 17 0 8 8 3 21 -13z m-6368 -97 c2 -45 -2 -60 -13 -63 -13 -4 -13 -3 -1
5 14 10 13 25 -4 132 -5 32 -5 33 6 10 6 -14 11 -52 12 -84z m2136 -1 c0 -5
-4 -3 -9 5 -5 8 -9 22 -9 30 0 16 17 -16 18 -35z m-1334 15 c-3 -5 -16 -15
-28 -21 -19 -9 -19 -8 3 10 28 23 34 26 25 11z m-107 -47 c-16 -2 -40 -2 -55
0 -16 2 -3 4 27 4 30 0 43 -2 28 -4z m1201 -79 c14 -12 -19 -1 -35 12 -18 14
-18 14 6 3 14 -6 27 -13 29 -15z m78 -20 c-3 -3 -12 -4 -19 -1 -8 3 -5 6 6 6
11 1 17 -2 13 -5z m163 -4 c-8 -5 -22 -9 -30 -9 -10 0 -8 3 5 9 27 12 43 12
25 0z m-951 -32 c-6 -12 -38 -58 -70 -101 -33 -43 -59 -83 -59 -89 0 -6 -3 -9
-6 -6 -8 9 12 45 61 108 23 30 50 70 59 88 10 19 20 32 23 29 2 -3 -1 -16 -8
-29z m828 26 c-3 -3 -12 -4 -19 -1 -8 3 -5 6 6 6 11 1 17 -2 13 -5z m4141 -61
c-10 -2 -26 -2 -35 0 -10 3 -2 5 17 5 19 0 27 -2 18 -5z m-233 -39 c14 -15 24
-36 24 -48 -1 -20 -2 -20 -6 -1 -3 11 -14 30 -26 43 -40 44 -158 19 -215 -46
l-34 -37 19 33 c10 19 24 38 30 44 24 19 88 37 136 38 39 0 52 -5 72 -26z
m341 -26 c37 -39 78 -107 71 -114 -3 -3 -13 9 -23 27 -9 18 -40 57 -68 87 -28
30 -42 50 -31 44 11 -6 34 -25 51 -44z m-6610 -23 c-50 -61 -57 -58 -9 4 21
27 40 47 42 45 2 -2 -13 -24 -33 -49z m6434 11 c0 -13 7 -43 15 -66 8 -24 13
-45 11 -47 -5 -5 -46 115 -46 135 0 7 5 10 10 7 6 -3 10 -17 10 -29z m-2800
-10 c0 -2 -11 -6 -25 -8 -13 -3 -22 -1 -19 3 5 9 44 13 44 5z m1700 -9 c0 -2
-15 -13 -32 -26 l-33 -22 28 25 c26 24 37 31 37 23z m68 -38 l14 -24 -17 23
c-10 12 -23 22 -31 22 -7 0 -16 4 -19 10 -4 6 2 7 16 1 13 -4 29 -19 37 -32z
m-1586 -60 c15 -16 33 -48 38 -71 l11 -43 87 0 c64 -1 119 -9 211 -33 107 -28
136 -31 220 -28 81 3 112 10 195 41 87 33 108 37 170 33 208 -10 382 -215 321
-378 -9 -25 -17 -53 -18 -62 -1 -9 -4 -16 -7 -15 -4 1 -22 -14 -41 -34 -19
-20 -43 -41 -54 -47 -20 -10 -20 -10 0 -33 l20 -23 -27 17 c-27 17 -29 17 -78
-8 -74 -37 -154 -55 -250 -55 -54 0 -91 -5 -98 -12 -9 -9 -12 -9 -12 4 0 21
-129 36 -141 16 -7 -10 -9 -9 -9 3 0 11 -12 16 -45 18 -134 7 -337 94 -447
193 -43 38 -108 142 -108 172 0 13 -23 41 -63 75 -80 69 -137 145 -136 180 1
24 2 24 9 -6 8 -36 71 -115 133 -169 l42 -35 11 46 c15 58 38 92 75 113 32 19
33 23 19 71 -12 44 -51 85 -117 122 -29 17 -53 33 -53 36 0 11 117 -60 142
-88z m2475 49 c-3 -8 -6 -5 -6 6 -1 11 2 17 5 13 3 -3 4 -12 1 -19z m-6446
-21 c-10 -9 -11 -8 -5 6 3 10 9 15 12 12 3 -3 0 -11 -7 -18z m1501 -37 c6 0
21 8 32 18 21 17 21 17 2 -5 -11 -13 -24 -23 -29 -23 -14 0 -57 41 -57 53 0 5
9 -2 21 -17 11 -14 25 -26 31 -26z m3928 40 c0 -13 -68 -88 -91 -100 -11 -6
-26 -6 -41 0 -22 10 -22 10 4 5 22 -4 36 2 67 31 22 19 43 44 46 55 7 20 15
25 15 9z m-1723 -62 c-2 -13 -4 -3 -4 22 0 25 2 35 4 23 2 -13 2 -33 0 -45z
m2727 40 c-9 -31 -54 -101 -60 -95 -3 3 6 21 20 42 14 20 28 45 31 56 4 10 9
19 11 19 3 0 2 -10 -2 -22z m-244 -77 c0 -84 -6 -75 -13 19 -4 49 -3 70 3 60
5 -8 10 -44 10 -79z m1517 53 c-3 -3 -12 -4 -19 -1 -8 3 -5 6 6 6 11 1 17 -2
13 -5z m-4116 -21 c13 -16 12 -17 -3 -4 -10 7 -18 15 -18 17 0 8 8 3 21 -13z
m4078 14 c-2 -1 -13 -9 -24 -17 -19 -14 -19 -14 -6 3 7 9 18 17 24 17 6 0 8
-1 6 -3z m-2121 -35 c-22 -31 -111 -128 -103 -112 11 19 105 130 112 130 2 0
-2 -8 -9 -18z m-317 -2 c-50 -8 -74 -33 -68 -72 2 -15 0 -25 -5 -22 -17 10 -7
56 17 79 18 19 34 25 62 24 l38 -2 -44 -7z m1667 -46 c21 -52 22 -58 7 -80 -8
-13 -19 -24 -22 -24 -4 0 -2 5 5 12 17 17 15 50 -8 102 -10 25 -16 46 -12 46
4 0 17 -25 30 -56z m-3558 43 c0 -2 -19 -21 -42 -42 l-43 -40 40 43 c36 39 45
47 45 39z m277 -64 c-3 -10 -5 -2 -5 17 0 19 2 27 5 18 2 -10 2 -26 0 -35z
m-3632 7 c10 -11 16 -20 13 -20 -3 0 -13 9 -23 20 -10 11 -16 20 -13 20 3 0
13 -9 23 -20z m6329 -56 c-49 -90 -74 -104 -110 -61 l-19 22 22 -18 c33 -29
55 -17 92 51 19 34 36 60 38 58 2 -1 -9 -25 -23 -52z m1325 -10 c14 -12 -19
-1 -35 12 -18 14 -18 14 6 3 14 -6 27 -13 29 -15z m-1452 -16 c-3 -8 -6 -5 -6
6 -1 11 2 17 5 13 3 -3 4 -12 1 -19z m588 1 c35 -18 36 -20 11 -14 -30 6 -79
35 -60 35 5 0 28 -9 49 -21z m-852 -26 c-13 -2 -33 -2 -45 0 -13 2 -3 4 22 4
25 0 35 -2 23 -4z m-2313 -12 c0 -6 -11 -23 -25 -38 l-26 -28 23 37 c25 40 28
43 28 29z m2190 -13 c-70 -27 -155 -84 -203 -137 -20 -23 -37 -36 -37 -30 0
16 100 108 148 136 48 28 109 52 132 52 8 0 -10 -9 -40 -21z m198 -5 c15 -16
19 -21 7 -12 -11 9 -29 21 -40 27 -11 6 -14 12 -8 12 7 0 25 -12 41 -27z
m-5527 -50 c13 -16 12 -17 -3 -4 -10 7 -18 15 -18 17 0 8 8 3 21 -13z m1202 0
c-18 -2 -48 -2 -65 0 -18 2 -4 4 32 4 36 0 50 -2 33 -4z m1680 -10 c-7 -2 -19
-2 -25 0 -7 3 -2 5 12 5 14 0 19 -2 13 -5z m2685 -60 c-32 -67 -190 -121 -368
-126 -62 -2 -72 1 -92 23 -17 18 -18 20 -3 8 33 -26 59 -29 156 -17 133 15
242 53 279 96 17 18 31 44 31 56 1 16 2 18 6 5 2 -10 -2 -30 -9 -45z m-3195
-38 c-3 -9 -8 -14 -10 -11 -3 3 -2 9 2 15 9 16 15 13 8 -4z m-2453 -32 c0 -7
-39 17 -46 28 -3 6 5 3 20 -6 14 -10 26 -19 26 -22z m55 -31 c-3 -3 -11 0 -18
7 -9 10 -8 11 6 5 10 -3 15 -9 12 -12z m42 -8 c-3 -3 -12 -4 -19 -1 -8 3 -5 6
6 6 11 1 17 -2 13 -5z m56 -11 c-7 -2 -21 -2 -30 0 -10 3 -4 5 12 5 17 0 24
-2 18 -5z m2257 -6 c0 -2 -12 -14 -27 -28 l-28 -24 24 28 c23 25 31 32 31 24z
m2620 -112 c14 -13 26 -14 61 -6 70 16 309 13 397 -5 248 -51 620 -267 822
-477 48 -50 75 -95 135 -231 20 -44 63 -117 96 -163 122 -168 269 -482 269
-574 0 -15 8 -19 43 -21 41 -1 41 -1 6 -5 l-36 -4 -6 -112 c-10 -182 -55 -285
-174 -398 -63 -60 -95 -80 -173 -111 -181 -71 -422 -76 -650 -12 -180 50 -575
237 -681 322 -96 78 -238 225 -317 331 -76 102 -175 298 -202 404 -44 168 -48
301 -16 517 17 110 110 297 195 388 17 18 31 35 31 36 0 2 -12 6 -27 9 -16 3
-37 13 -48 22 -19 16 -19 16 4 4 51 -24 84 -29 100 -15 22 20 137 76 155 76
21 0 20 17 -1 29 -10 6 -14 11 -9 11 5 0 17 -7 26 -15z m-5190 -69 c0 -2 -7
-7 -16 -10 -8 -3 -12 -2 -9 4 6 10 25 14 25 6z m4407 -148 c-3 -8 -6 -5 -6 6
-1 11 2 17 5 13 3 -3 4 -12 1 -19z m-4407 -55 c0 -7 -39 17 -46 28 -3 6 5 3
20 -6 14 -10 26 -19 26 -22z m4360 -16 l-44 -42 40 46 c21 25 41 44 44 42 2
-2 -16 -23 -40 -46z m-4159 16 c13 -16 12 -17 -3 -4 -10 7 -18 15 -18 17 0 8
8 3 21 -13z m-131 -55 l22 -33 -22 25 c-12 14 -31 33 -43 43 l-22 18 22 -10
c12 -6 31 -26 43 -43z m7440 -177 c0 -21 -10 -26 -77 -36 -61 -9 -120 -52
-146 -105 -34 -70 -36 -177 -4 -261 14 -37 36 -84 49 -105 54 -86 87 -153 117
-239 18 -49 39 -100 47 -112 7 -12 14 -33 14 -45 0 -35 -48 50 -71 124 -10 33
-51 119 -93 191 -104 185 -119 224 -118 324 1 135 50 210 168 258 74 31 114
33 114 6z m-3169 -178 c-12 -20 -14 -14 -5 12 4 9 9 14 11 11 3 -2 0 -13 -6
-23z m-47 -74 c-16 -17 -46 -39 -66 -50 -57 -29 -59 -22 -3 10 28 16 59 38 69
50 11 11 21 21 24 21 3 0 -7 -14 -24 -31z m2413 -41 c-3 -8 -6 -5 -6 6 -1 11
2 17 5 13 3 -3 4 -12 1 -19z m-2147 -14 c0 -8 -13 -29 -29 -45 -24 -24 -37
-29 -73 -28 l-43 2 49 6 c49 7 86 36 86 67 0 8 2 14 5 14 3 0 5 -7 5 -16z
m2177 -78 c4 -6 0 -3 -9 7 -10 11 -18 29 -17 41 1 17 2 16 9 -7 5 -16 12 -34
17 -41z m-7302 -136 c3 -6 -1 -7 -9 -4 -18 7 -21 14 -7 14 6 0 13 -4 16 -10z
m40 -30 c10 -11 16 -20 13 -20 -3 0 -13 9 -23 20 -10 11 -16 20 -13 20 3 0 13
-9 23 -20z m85 -41 c35 -7 35 -7 4 -8 -16 0 -39 6 -50 15 -10 8 -12 12 -4 8 8
-4 30 -11 50 -15z m1134 -324 c87 -16 105 -24 85 -35 -8 -4 -45 -1 -84 7 -134
28 -225 0 -298 -93 -49 -64 -81 -75 -46 -16 45 76 98 117 179 138 60 17 75 17
164 -1z m1481 -81 c72 -25 164 -54 205 -65 114 -30 147 -45 250 -114 173 -115
283 -236 330 -363 33 -86 27 -223 -10 -257 -17 -16 -18 -15 -5 22 27 75 12
201 -34 279 -36 60 -129 171 -184 218 -58 51 -175 126 -234 152 -38 16 -50 20
-153 47 -30 8 -106 33 -168 55 -132 48 -201 59 -262 42 -85 -23 -130 -77 -130
-156 0 -66 25 -104 110 -167 36 -27 99 -81 140 -121 41 -40 121 -105 177 -144
56 -40 129 -97 162 -128 33 -31 65 -53 71 -49 5 3 7 0 4 -8 -5 -14 43 -57 64
-57 5 0 12 -6 15 -14 3 -8 32 -27 64 -42 51 -25 69 -29 148 -29 70 0 96 4 115
18 33 23 47 22 25 -3 -9 -10 -45 -28 -79 -40 -55 -18 -69 -19 -117 -9 -30 6
-83 24 -118 40 -52 24 -67 27 -79 17 -13 -11 -14 -10 -5 6 9 16 5 24 -20 45
-17 14 -35 25 -39 24 -4 -2 -8 3 -8 10 0 22 -162 172 -235 219 -39 25 -104 78
-145 118 -40 40 -105 96 -144 125 -93 69 -112 91 -127 145 -16 60 -6 107 32
153 47 57 91 76 179 76 64 1 95 -6 205 -45z m-1286 21 c74 -38 110 -133 91
-235 -24 -124 -9 -235 46 -350 26 -53 32 -80 59 -255 24 -157 29 -247 16 -287
-22 -67 -104 -128 -173 -128 -50 0 -91 25 -158 96 -75 80 -94 125 -110 259
-18 151 -78 241 -230 348 -88 62 -125 115 -141 202 -15 82 2 195 29 195 4 0 7
-48 7 -107 0 -147 19 -187 119 -251 158 -102 227 -206 256 -387 22 -136 44
-185 117 -257 l54 -53 64 0 c61 0 67 2 102 38 l38 37 0 93 c0 84 -18 205 -51
347 -7 30 -30 96 -51 145 -37 88 -38 92 -34 195 8 235 7 247 -15 277 -11 15
-37 39 -57 52 -27 18 -34 27 -25 33 17 10 14 10 47 -7z m3419 -32 c-21 -2 -57
-2 -80 0 -24 2 -7 4 37 4 44 0 63 -2 43 -4z m261 -67 c-2 -2 -13 8 -23 22
l-19 27 24 -22 c12 -12 21 -24 18 -27z m-1929 -30 c0 -6 -11 5 -25 24 -14 19
-25 36 -25 39 0 10 49 -53 50 -63z m660 -446 c-6 -11 -13 -20 -16 -20 -2 0 0
9 6 20 6 11 13 20 16 20 2 0 0 -9 -6 -20z m805 -79 c-6 -4 -30 -25 -55 -46
l-45 -37 48 46 c27 25 52 46 55 46 3 0 2 -4 -3 -9z m-2615 -75 c0 -2 -8 -10
-17 -17 -16 -13 -17 -12 -4 4 13 16 21 21 21 13z m-160 -43 c-8 -3 -22 -11
-30 -17 -13 -10 -13 -9 -1 7 7 9 21 17 30 16 13 0 14 -1 1 -6z m68 0 c-10 -2
-26 -2 -35 0 -10 3 -2 5 17 5 19 0 27 -2 18 -5z m45 -190 c-7 -2 -21 -2 -30 0
-10 3 -4 5 12 5 17 0 24 -2 18 -5z m115 0 c-10 -2 -26 -2 -35 0 -10 3 -2 5 17
5 19 0 27 -2 18 -5z m1927 -663 c10 -11 16 -20 13 -20 -3 0 -13 9 -23 20 -10
11 -16 20 -13 20 3 0 13 -9 23 -20z m3220 -130 c10 -11 16 -20 13 -20 -3 0
-13 9 -23 20 -10 11 -16 20 -13 20 3 0 13 -9 23 -20z"/>
<path d="M5360 3961 c-47 -21 -102 -41 -123 -45 -80 -15 -200 -7 -302 19 -113
30 -231 47 -263 38 -15 -4 -22 -13 -22 -32 l-1 -26 -12 22 c-12 22 -14 22 -36
7 -41 -29 -70 -134 -37 -134 7 0 25 9 40 21 19 15 24 16 20 5 -3 -8 -21 -21
-40 -28 -28 -10 -33 -16 -28 -33 40 -128 178 -240 383 -310 87 -29 201 -43
201 -24 0 9 4 8 13 -3 16 -22 137 -29 161 -9 14 12 16 12 10 -3 -5 -14 3 -16
59 -16 113 0 284 47 273 75 -3 8 2 11 12 8 30 -7 96 50 125 109 68 139 -6 291
-179 369 -90 41 -145 39 -254 -10z m-723 -88 c-3 -10 -5 -4 -5 12 0 17 2 24 5
18 2 -7 2 -21 0 -30z"/>
<path d="M6155 3450 c-54 -8 -161 -37 -178 -47 -6 -4 -3 -10 9 -15 16 -7 16
-7 -6 -6 -41 2 -72 -16 -126 -73 -84 -89 -145 -212 -180 -365 -25 -104 -25
-337 0 -439 25 -105 81 -244 135 -334 77 -128 267 -337 399 -440 134 -103 508
-271 707 -316 105 -24 342 -26 431 -3 73 19 164 59 158 70 -3 4 1 5 9 2 21 -8
113 70 153 131 30 45 35 57 24 70 -10 13 -9 15 8 15 16 0 25 13 41 62 28 82
27 121 -1 141 -19 13 -20 16 -5 16 9 1 17 -3 17 -9 0 -5 5 -10 10 -10 13 0 1
112 -13 121 -6 4 -5 8 1 10 33 12 -131 394 -243 568 -25 39 -64 110 -86 158
-23 49 -50 106 -60 129 -40 85 -136 171 -367 328 -125 85 -325 186 -429 218
-75 22 -314 33 -408 18z m-112 -57 c-7 -2 -19 -2 -25 0 -7 3 -2 5 12 5 14 0
19 -2 13 -5z"/>
<path d="M1588 5533 c-26 -58 -28 -125 -5 -177 l17 -38 47 40 c27 21 64 47 83
57 19 10 49 29 66 41 34 26 92 32 112 12 19 -19 14 -33 -6 -15 -10 10 -30 17
-44 17 -26 0 -188 -102 -226 -143 l-23 -24 30 -26 c51 -42 205 -64 231 -32 7
8 16 30 20 48 6 24 8 26 9 9 1 -13 -6 -36 -14 -51 l-14 -28 82 2 c45 1 110 10
145 20 l63 18 -33 27 c-18 16 -30 31 -25 36 4 4 7 2 7 -4 0 -7 14 -21 31 -31
31 -19 32 -19 98 4 90 30 181 80 181 98 0 3 -23 13 -52 23 -37 12 -69 15 -119
11 -79 -7 -123 -26 -143 -65 -9 -15 -15 -22 -16 -17 0 22 34 58 74 76 56 25
160 25 225 -1 l50 -19 29 42 c29 41 72 121 72 132 0 3 -210 5 -466 5 l-465 0
-21 -47z"/>
<path d="M5760 5553 c-112 -85 -206 -210 -240 -320 -50 -164 -12 -265 137
-363 78 -51 107 -62 97 -35 -4 8 -18 16 -33 16 -25 1 -25 2 4 8 30 6 30 7 29
71 -11 467 -11 465 60 536 55 56 102 64 191 34 36 -12 92 -40 125 -61 70 -47
177 -160 232 -244 22 -33 44 -59 49 -58 5 2 8 -5 7 -15 -1 -9 8 -50 21 -91
l22 -73 27 23 c47 41 91 92 128 147 31 46 35 57 26 77 -7 14 -22 25 -39 28
l-28 4 27 2 c17 0 32 -7 42 -20 14 -20 15 -20 24 -2 5 10 29 72 52 138 23 66
55 144 71 173 l29 52 -512 0 -513 0 -35 -27z"/>
<path d="M5850 5468 c-59 -31 -80 -145 -61 -331 7 -64 14 -148 16 -185 2 -37
6 -78 9 -92 2 -14 5 -34 5 -45 1 -18 12 -23 71 -33 39 -7 105 -12 146 -12 69
0 78 2 95 24 25 32 81 50 135 42 39 -5 48 -2 91 31 26 20 51 40 54 45 11 18
-24 168 -40 168 -4 0 -13 -6 -20 -12 -8 -8 -7 -3 2 12 15 24 14 28 -14 77 -16
28 -70 94 -119 146 -68 71 -107 103 -161 132 -80 42 -166 56 -209 33z m521
-563 c8 -16 6 -15 -10 4 -12 13 -21 28 -21 35 0 12 14 -5 31 -39z"/>
<path d="M6387 4823 c-26 -18 -35 -29 -27 -37 5 -5 10 -17 10 -25 0 -11 -4 -9
-15 6 l-15 22 -49 -24 c-26 -14 -81 -32 -121 -42 -65 -16 -79 -23 -119 -66
-25 -27 -49 -57 -53 -66 -6 -14 -7 -14 -7 2 -1 10 19 39 44 66 l45 48 -83 6
c-45 4 -106 10 -135 13 -43 6 -53 4 -51 -7 2 -8 0 -45 -4 -84 -9 -91 7 -226
33 -281 57 -118 144 -124 296 -22 118 79 195 156 232 232 41 85 63 167 61 234
-1 28 -3 52 -3 51 -1 0 -18 -12 -39 -26z m-29 -112 c-7 -11 -37 -30 -66 -42
-35 -14 -61 -33 -72 -51 -38 -62 -131 -158 -153 -157 l-22 0 22 9 c26 10 85
74 126 133 31 46 68 73 109 83 16 3 36 16 46 29 21 28 29 25 10 -4z"/>
<path d="M6161 4799 c-18 -11 -31 -22 -28 -25 6 -7 119 25 132 37 19 19 -71 8
-104 -12z"/>
<path d="M0 2395 c0 -124 4 -225 8 -225 13 0 115 90 140 124 31 41 43 73 44
117 0 49 -10 79 -29 79 -9 0 -13 6 -10 15 6 14 -60 75 -82 75 -6 0 -11 4 -11
8 0 8 -43 32 -55 32 -3 0 -5 -101 -5 -225z m113 98 c-7 -2 -19 -2 -25 0 -7 3
-2 5 12 5 14 0 19 -2 13 -5z"/>
<path d="M1030 750 c-9 -6 -10 -10 -3 -10 6 0 15 5 18 10 8 12 4 12 -15 0z"/>
<path d="M1055 737 c-77 -43 -126 -188 -95 -281 l12 -37 33 21 c45 28 56 25
14 -3 -22 -16 -33 -30 -31 -43 2 -10 7 -41 12 -69 6 -33 6 -71 -1 -110 -6 -33
-14 -95 -16 -137 l-5 -78 171 0 c167 0 171 0 171 21 0 60 68 223 131 316 16
23 29 49 29 59 0 10 3 14 6 11 9 -9 63 54 57 67 -2 6 -44 43 -94 81 -49 39
-120 94 -157 124 -108 87 -163 100 -237 58z m259 -103 c3 -8 2 -12 -4 -9 -6 3
-10 10 -10 16 0 14 7 11 14 -7z m41 -54 c10 -11 16 -20 13 -20 -3 0 -13 9 -23
20 -10 11 -16 20 -13 20 3 0 13 -9 23 -20z m50 -60 c10 -11 16 -20 13 -20 -3
0 -13 9 -23 20 -10 11 -16 20 -13 20 3 0 13 -9 23 -20z"/>
<path d="M575 606 c-5 -2 -70 -23 -144 -46 l-134 -42 -88 -85 c-49 -47 -86
-89 -84 -93 3 -4 -6 -11 -19 -14 -14 -3 -28 -15 -31 -27 -4 -11 -9 -18 -13
-15 -3 4 -18 -6 -34 -21 -28 -26 -28 -28 -28 -145 l0 -118 294 0 293 0 39 36
c22 20 82 74 135 119 85 74 98 90 117 143 12 32 22 70 22 83 -1 66 -78 166
-155 200 -40 18 -148 33 -170 25z"/>
<path d="M1669 532 l-31 -28 23 -16 c24 -15 172 -68 191 -68 17 0 2 80 -20
109 -16 22 -28 26 -75 29 -49 3 -59 0 -88 -26z"/>
<path d="M1546 410 c-20 -23 -39 -54 -43 -70 -3 -16 -9 -28 -13 -25 -4 3 -12
-1 -18 -8 -23 -28 -81 -157 -101 -224 -12 -39 -27 -74 -34 -76 -6 -3 473 -6
1066 -6 1073 -1 1077 -1 1077 19 0 11 -4 28 -9 38 -5 9 -14 39 -20 66 -7 27
-21 61 -31 76 -11 16 -20 32 -20 37 0 4 -18 30 -39 58 -22 27 -37 53 -34 59 3
5 2 6 -4 3 -5 -3 -36 5 -69 18 -32 14 -77 25 -99 25 -53 0 -116 -16 -125 -30
-5 -8 -9 -8 -11 -2 -7 17 -160 -17 -189 -41 -16 -14 -19 -16 -11 -4 19 24 14
26 -44 17 -27 -5 -68 -9 -89 -9 -23 -1 -48 -8 -59 -19 -15 -12 -21 -14 -24 -4
-3 8 -29 12 -84 12 -79 0 -101 -12 -56 -30 14 -6 16 -9 6 -9 -9 -1 -24 8 -34
19 -17 19 -31 20 -260 20 l-242 0 -27 -77 c-36 -104 -49 -158 -55 -225 -1 -5
-8 -8 -16 -8 -24 0 -18 69 15 173 43 135 40 157 -25 157 -23 0 -160 54 -182
72 -7 6 -13 7 -13 2 0 -5 -4 -4 -8 1 -27 37 -39 36 -76 -5z m1002 -117 c-10
-2 -26 -2 -35 0 -10 3 -2 5 17 5 19 0 27 -2 18 -5z m49 -9 c-3 -3 -12 -4 -19
-1 -8 3 -5 6 6 6 11 1 17 -2 13 -5z m136 -1 c-7 -2 -21 -2 -30 0 -10 3 -4 5
12 5 17 0 24 -2 18 -5z"/>
<path d="M7240 319 c-51 -30 -90 -78 -161 -197 -35 -58 -65 -110 -67 -114 -2
-4 51 -8 117 -8 l121 0 6 28 c4 15 13 32 20 37 6 6 21 32 33 58 l20 48 -22 -7
c-19 -6 -19 -4 6 15 23 20 27 30 27 76 0 83 -33 104 -100 64z"/>
<path d="M904 259 c-14 -18 -17 -79 -4 -79 12 0 23 40 18 71 -2 18 -5 20 -14
8z"/>
<path d="M807 154 c-32 -30 -85 -77 -118 -104 l-60 -50 133 0 133 0 -1 73 c-2
98 -2 101 -16 120 -12 14 -19 10 -71 -39z"/>
</g>
</svg>
